Coordinates
version=1
nRows=24
nColumns=38
inDegrees=no

Units are S.I. units (second, meters, Newtons, ...)
If the header above contains a line with 'inDegrees', this indicates whether rotational values are in degrees (yes) or radians (no).

endheader
time	pelvis_tilt	pelvis_list	pelvis_rotation	pelvis_tx	pelvis_ty	pelvis_tz	hip_flexion_r	hip_adduction_r	hip_rotation_r	knee_angle_r	ankle_angle_r	subtalar_angle_r	mtp_angle_r	hip_flexion_l	hip_adduction_l	hip_rotation_l	knee_angle_l	ankle_angle_l	subtalar_angle_l	mtp_angle_l	lumbar_extension	lumbar_bending	lumbar_rotation	arm_flex_r	arm_add_r	arm_rot_r	elbow_flex_r	pro_sup_r	wrist_flex_r	wrist_dev_r	arm_flex_l	arm_add_l	arm_rot_l	elbow_flex_l	pro_sup_l	wrist_flex_l	wrist_dev_l
0.95	-0.0687605	1.46623	1.67827	0.680094	1.78524	1.01718	0.746873	-0.0872381	-0.097249	1.00363	0.09027	0	0	0.118715	-0.0572153	-0.33412	0.603881	0.224004	0	0	0.0907671	0.0382318	-0.107426	-0.303267	-0.325447	0.53184	0.505015	1.02589	0	0	-0.0341559	-0.427678	0.446122	0.748548	1.33362	0	0
0.96	-0.0517939	1.45325	1.66469	0.680217	1.7961	1.01505	0.755212	-0.0859564	-0.0973603	0.954128	0.129376	0	0	0.121018	-0.058189	-0.328727	0.60279	0.228471	0	0	0.107653	0.0398893	-0.117234	-0.298087	-0.32854	0.59298	0.489729	0.969987	0	0	-0.0391102	-0.433288	0.428522	0.761696	1.34112	0	0
0.97	-0.0388177	1.43961	1.65443	0.680349	1.80701	1.01273	0.763012	-0.0832937	-0.0974942	0.901969	0.159823	0	0	0.1238	-0.0591064	-0.324529	0.601913	0.231997	0	0	0.124086	0.0427772	-0.120078	-0.306345	-0.320594	0.586623	0.4767	0.979017	0	0	-0.0364451	-0.438413	0.424711	0.770048	1.34222	0	0
0.98	-0.0294233	1.42471	1.64756	0.680516	1.81797	1.01022	0.771246	-0.0793529	-0.0972002	0.847193	0.1852	0	0	0.127829	-0.0596946	-0.320587	0.601522	0.235655	0	0	0.142047	0.0454031	-0.122413	-0.315115	-0.3125	0.576706	0.46445	0.989101	0	0	-0.0342294	-0.44285	0.420926	0.777171	1.34349	0	0
0.99	-0.0220533	1.41071	1.64246	0.68071	1.82896	1.00772	0.777215	-0.07401	-0.0955297	0.789337	0.203579	0	0	0.130973	-0.0606881	-0.318359	0.601858	0.238343	0	0	0.159785	0.0483739	-0.123497	-0.321499	-0.30996	0.59234	0.45637	0.9708	0	0	-0.0292465	-0.448348	0.426617	0.781525	1.33695	0	0
1	-0.00979092	1.39547	1.6323	0.681027	1.83999	1.00524	0.778708	-0.0641451	-0.0835589	0.719503	0.21481	0	0	0.136109	-0.0629454	-0.31562	0.603358	0.241623	0	0	0.176764	0.0528423	-0.125514	-0.329973	-0.296072	0.557245	0.439359	1.01897	0	0	-0.0280802	-0.449594	0.417056	0.785443	1.34783	0	0
1.01	0.0462454	1.37811	1.57525	0.681937	1.85065	1.00374	0.734873	-0.0238062	0.00752161	0.537733	0.183061	0	0	0.144648	-0.0751505	-0.311895	0.605228	0.242776	0	0	0.19797	0.0675639	-0.136041	-0.313188	-0.304033	0.659066	0.418073	0.934408	0	0	-0.0347598	-0.443544	0.389639	0.780497	1.36687	0	0
1.02	0.0554092	1.37145	1.57094	0.682042	1.86219	1.00189	0.724756	-0.0226591	0.00856019	0.469079	0.173674	0	0	0.140347	-0.0779567	-0.309788	0.6061	0.243699	0	0	0.206322	0.0723732	-0.140664	-0.317246	-0.296391	0.652865	0.405238	0.957475	0	0	-0.0324353	-0.44545	0.385949	0.782544	1.37013	0	0
1.03	0.0673604	1.36493	1.56466	0.682179	1.87389	1.00003	0.716469	-0.0216341	0.0113964	0.413971	0.17028	0	0	0.136678	-0.0816074	-0.306332	0.608414	0.244726	0	0	0.215954	0.0778152	-0.144854	-0.320413	-0.292814	0.666222	0.396083	0.957742	0	0	-0.0277852	-0.44848	0.392471	0.78163	1.36305	0	0
1.04	0.0867248	1.36191	1.55161	0.682311	1.88575	0.998578	0.703026	-0.0191876	0.0177459	0.362953	0.15564	0	0	0.129513	-0.0872308	-0.302213	0.610951	0.244316	0	0	0.220886	0.0848439	-0.152919	-0.317251	-0.291701	0.700115	0.385171	0.946349	0	0	-0.0281544	-0.448137	0.384454	0.781415	1.36503	0	0
1.05	0.10813	1.36209	1.53651	0.682443	1.89771	0.997403	0.689242	-0.0165789	0.0236626	0.326568	0.14158	0	0	0.11926	-0.0936816	-0.298835	0.614198	0.242456	0	0	0.220231	0.0929507	-0.157293	-0.323951	-0.275599	0.633425	0.368321	1.04362	0	0	-0.0251055	-0.446551	0.378443	0.77992	1.36829	0	0
1.06	0.120422	1.36086	1.5299	0.682624	1.90968	0.995991	0.689792	-0.0159459	0.0211998	0.330221	0.154151	0	0	0.111488	-0.0981107	-0.294756	0.61899	0.239932	0	0	0.222703	0.0982223	-0.168952	-0.310583	-0.286336	0.736728	0.364225	0.966397	0	0	-0.0328485	-0.445607	0.359506	0.783009	1.37185	0	0
1.07	0.131585	1.36035	1.52367	0.68291	1.92175	0.994616	0.693169	-0.0147449	0.0184154	0.347267	0.161793	0	0	0.103552	-0.102666	-0.291115	0.624897	0.236913	0	0	0.223735	0.104176	-0.172472	-0.311182	-0.282842	0.736734	0.35766	0.986978	0	0	-0.0320849	-0.445257	0.356972	0.781425	1.36919	0	0
1.08	0.140025	1.36045	1.51974	0.683359	1.93399	0.993295	0.700736	-0.0136077	0.0131556	0.381637	0.167961	0	0	0.0956077	-0.106949	-0.286922	0.631886	0.232731	0	0	0.224151	0.109262	-0.175482	-0.311563	-0.278107	0.731279	0.350086	1.0165	0	0	-0.0329006	-0.444921	0.35381	0.78037	1.3644	0	0
1.09	0.149522	1.36237	1.51462	0.683935	1.9465	0.99222	0.705997	-0.0119511	0.0087085	0.420313	0.163129	0	0	0.0859164	-0.111659	-0.282314	0.639112	0.226726	0	0	0.222633	0.114595	-0.179255	-0.305945	-0.280583	0.775176	0.346423	0.995017	0	0	-0.0351526	-0.444461	0.350528	0.778811	1.35778	0	0
1.1	0.152957	1.36327	1.51531	0.684542	1.95944	0.99099	0.715837	-0.0118876	0.000942072	0.475324	0.169515	0	0	0.0775645	-0.115086	-0.277155	0.647044	0.218881	0	0	0.221917	0.118607	-0.180383	-0.310772	-0.267785	0.716056	0.332897	1.09251	0	0	-0.0382831	-0.443912	0.347849	0.778633	1.35238	0	0
1.11	0.156043	1.36518	1.51715	0.685174	1.97282	0.989898	0.723605	-0.013228	-0.0107345	0.532447	0.173746	0	0	0.068421	-0.118527	-0.270647	0.655325	0.208521	0	0	0.222985	0.120975	-0.187546	-0.300522	-0.278184	0.811199	0.334853	1.01913	0	0	-0.0486417	-0.443625	0.339105	0.779889	1.34793	0	0
1.12	0.162919	1.36829	1.51509	0.685803	1.98651	0.989076	0.729769	-0.0162422	-0.0287717	0.58608	0.16594	0	0	0.0584222	-0.122896	-0.26375	0.66454	0.197498	0	0	0.221728	0.124925	-0.18964	-0.303612	-0.27582	0.791235	0.333594	1.04719	0	0	-0.0540299	-0.441574	0.336834	0.777216	1.34637	0	0
1.13	0.173556	1.37135	1.5089	0.686401	2.00025	0.988583	0.740694	-0.0236126	-0.0564608	0.642336	0.163243	0	0	0.0500798	-0.127596	-0.254804	0.676178	0.185079	0	0	0.220952	0.129659	-0.193433	-0.30103	-0.280246	0.812867	0.336307	1.02864	0	0	-0.0608354	-0.438255	0.334297	0.772314	1.3434	0	0
1.14	0.205833	1.37272	1.47849	0.687156	2.0139	0.988874	0.740402	-0.0217953	-0.0661374	0.662714	0.158924	0	0	0.0452924	-0.136727	-0.245939	0.691354	0.170647	0	0	0.221412	0.140761	-0.19589	-0.295969	-0.284477	0.833654	0.334596	1.01739	0	0	-0.0652922	-0.430153	0.333426	0.758821	1.33982	0	0
1.15	0.242964	1.37455	1.44261	0.688085	2.02752	0.989719	0.737278	-0.0177199	-0.0782862	0.678117	0.140099	0	0	0.0426025	-0.146871	-0.236109	0.710841	0.150764	0	0	0.219866	0.153098	-0.193596	-0.302143	-0.274218	0.741072	0.32515	1.1159	0	0	-0.0633361	-0.422374	0.345276	0.740046	1.33114	0	0
1.16	0.275395	1.37583	1.4104	0.689312	2.04112	0.990802	0.733268	-0.0125295	-0.0916101	0.690536	0.109195	0	0	0.0434518	-0.155894	-0.224973	0.734914	0.128181	0	0	0.222221	0.162729	-0.195978	-0.287555	-0.292443	0.854113	0.335052	0.982839	0	0	-0.0657779	-0.417416	0.361824	0.720228	1.31621	0	0
1.17	0.297883	1.37614	1.38624	0.690736	2.05475	0.991819	0.731635	-0.00763391	-0.104755	0.706777	0.0910931	0	0	0.0483948	-0.16234	-0.214012	0.763262	0.104779	0	0	0.223086	0.17099	-0.193439	-0.286408	-0.293784	0.831721	0.336766	0.993589	0	0	-0.0687323	-0.411463	0.374876	0.702539	1.30947	0	0
1.18	0.312009	1.37542	1.36889	0.69236	2.06837	0.992777	0.731514	-0.00231515	-0.113821	0.723651	0.0817721	0	0	0.0576399	-0.166475	-0.201493	0.795185	0.0813476	0	0	0.222909	0.177213	-0.193297	-0.284731	-0.291855	0.778697	0.336735	1.04088	0	0	-0.0820062	-0.401008	0.357964	0.691196	1.32674	0	0
